# xmcd CD database file
#
# Track frame offsets:
#	150
#	13862
#	25092
#	44620
#	61630
#	80852
#	96097
#	113260
#	129587
#	143320
#	156950
#	179582
#	197752
#	225180
#	246375
#
# Disc length: 3650 seconds
#
# Revision: 0
# Processed by: cddbd v1.5.1PL0 Copyright (c) Steve Scherf et al.
# Submitted via: CDex 1.51
#
DISCID=bc0e400f
DTITLE=Ambrosia Brass Band - In the New Orleans Brass Band Tradition
DYEAR=1900
DGENRE=Jazz
TTITLE0=01 Victory Walk
TTITLE1=02 Maryland my Maryland
TTITLE2=03 Old Rugged Cross
TTITLE3=04 DOwn in Honky Tonk Town
TTITLE4=05 St.Louis Blues
TTITLE5=06 Lil'Liza Jane
TTITLE6=07 Bye and bye
TTITLE7=08 When my Dreamboat comes home
TTITLE8=09 Darktown Strutter's Ball
TTITLE9=10 Lead Me Saviour
TTITLE10=11 Mardi Gras in New Orleans
TTITLE11=12 Over in Gloryland
TTITLE12=13 Ma Se Ghe Pensu
TTITLE13=14 Bourbon Street Parade
TTITLE14=15 Wary Blues
EXTD=
EXTT0=
EXTT1=
EXTT2=
EXTT3=
EXTT4=
EXTT5=
EXTT6=
EXTT7=
EXTT8=
EXTT9=
EXTT10=
EXTT11=
EXTT12=
EXTT13=
EXTT14=
PLAYORDER=
